<?xml version="1.0" encoding="iso-8859-1"?>
<!-- Generator: Adobe Illustrator 19.0.0, SVG Export Plug-In . SVG Version: 6.00 Build 0)  -->
<svg version="1.1" id="Layer_1" xmlns="http://www.w3.org/2000/svg" xmlns:xlink="http://www.w3.org/1999/xlink" x="0px" y="0px"
	 viewBox="0 0 512 512" style="enable-background:new 0 0 512 512;" xml:space="preserve">
<g>
	<g>
		<path d="M256,294.128c-22.526,0-40.851,18.325-40.851,40.851c0,12.889,6.156,25.01,16.34,32.67v43.585
			c0,4.513,3.657,8.17,8.17,8.17h32.681c4.513,0,8.17-3.657,8.17-8.17v-43.586c10.183-7.66,16.34-19.781,16.34-32.669
			C296.851,312.453,278.526,294.128,256,294.128z M268.248,356.205c-2.523,1.461-4.077,4.155-4.077,7.071v39.788h-16.34v-39.787
			c0-2.916-1.555-5.61-4.079-7.071c-7.562-4.377-12.262-12.51-12.262-21.226c0-13.515,10.996-24.511,24.511-24.511
			s24.511,10.996,24.511,24.511C280.511,343.695,275.812,351.828,268.248,356.205z"/>
	</g>
</g>
<g>
	<g>
		<circle cx="136.17" cy="454.808" r="8.17"/>
	</g>
</g>
<g>
	<g>
		<circle cx="168.851" cy="422.128" r="8.17"/>
	</g>
</g>
<g>
	<g>
		<path d="M386.723,201.532h-12.936v-84.426C373.787,52.534,321.253,0,256.681,0S139.574,52.534,139.574,117.106v84.426h-14.298
			c-22.526,0-40.851,18.325-40.851,40.851v228.766c0,22.526,18.325,40.851,40.851,40.851h261.447
			c22.526,0,40.851-18.325,40.851-40.851V242.383C427.574,219.857,409.249,201.532,386.723,201.532z M155.915,117.106
			c0-55.563,45.203-100.766,100.766-100.766c55.563,0,100.766,45.203,100.766,100.766v84.426h-27.234v-84.426
			c0-40.546-32.986-73.532-73.532-73.532c-40.546,0-73.532,32.986-73.532,73.532v59.915c0,4.513,3.657,8.17,8.17,8.17
			s8.17-3.657,8.17-8.17v-59.915c0-31.535,25.657-57.191,57.191-57.191s57.192,25.657,57.192,57.191v84.426H155.915V117.106z
			 M411.234,471.149c0,13.515-10.996,24.511-24.511,24.511H125.277c-13.515,0-24.511-10.996-24.511-24.511V242.383
			c0-13.515,10.996-24.511,24.511-24.511h261.447c13.515,0,24.511,10.996,24.511,24.511V471.149z"/>
	</g>
</g>
<g>
</g>
<g>
</g>
<g>
</g>
<g>
</g>
<g>
</g>
<g>
</g>
<g>
</g>
<g>
</g>
<g>
</g>
<g>
</g>
<g>
</g>
<g>
</g>
<g>
</g>
<g>
</g>
<g>
</g>
</svg>
